<?xml version="1.0" encoding="UTF-8"?>
<svg id="Layer_1" data-name="Layer 1" xmlns="http://www.w3.org/2000/svg" viewBox="0 0 1020 370">
  <defs>
    <style>
      .cls-1 {
        fill: #862d95;
      }

      .cls-2 {
        fill: none;
        font-family: GeneralSans-Bold, 'General Sans';
        font-size: 60.11px;
        font-weight: 700;
        stroke: #862d95;
        stroke-miterlimit: 10;
      }
    </style>
  </defs>
  <path class="cls-1" d="m756.95,27c2.24,0,4.05,1.82,4.05,4.05v86.89c0,2.24-1.82,4.05-4.05,4.05h-86.89c-2.24,0-4.05-1.82-4.05-4.05V31.05c0-2.24,1.82-4.05,4.05-4.05h86.89m0-1h-86.89c-2.79,0-5.05,2.26-5.05,5.05v86.89c0,2.79,2.26,5.05,5.05,5.05h86.89c2.79,0,5.05-2.26,5.05-5.05V31.05c0-2.79-2.26-5.05-5.05-5.05h0Z"/>
  <text class="cls-2" transform="translate(696.82 93.14)"><tspan x="0" y="0">?</tspan></text>
  <path class="cls-1" d="m756.95,221c2.24,0,4.05,1.82,4.05,4.05v86.89c0,2.24-1.82,4.05-4.05,4.05h-86.89c-2.24,0-4.05-1.82-4.05-4.05v-86.89c0-2.24,1.82-4.05,4.05-4.05h86.89m0-1h-86.89c-2.79,0-5.05,2.26-5.05,5.05v86.89c0,2.79,2.26,5.05,5.05,5.05h86.89c2.79,0,5.05-2.26,5.05-5.05v-86.89c0-2.79-2.26-5.05-5.05-5.05h0Z"/>
  <text class="cls-2" transform="translate(696.82 287.14)"><tspan x="0" y="0">?</tspan></text>
  <path class="cls-1" d="m971.95,124c2.24,0,4.05,1.82,4.05,4.05v86.89c0,2.24-1.82,4.05-4.05,4.05h-86.89c-2.24,0-4.05-1.82-4.05-4.05v-86.89c0-2.24,1.82-4.05,4.05-4.05h86.89m0-1h-86.89c-2.79,0-5.05,2.26-5.05,5.05v86.89c0,2.79,2.26,5.05,5.05,5.05h86.89c2.79,0,5.05-2.26,5.05-5.05v-86.89c0-2.79-2.26-5.05-5.05-5.05h0Z"/>
  <text class="cls-2" transform="translate(911.82 190.14)"><tspan x="0" y="0">?</tspan></text>
  <path class="cls-1" d="m971.95,318c2.24,0,4.05,1.82,4.05,4.05v86.89c0,2.24-1.82,4.05-4.05,4.05h-86.89c-2.24,0-4.05-1.82-4.05-4.05v-86.89c0-2.24,1.82-4.05,4.05-4.05h86.89m0-1h-86.89c-2.79,0-5.05,2.26-5.05,5.05v86.89c0,2.79,2.26,5.05,5.05,5.05h86.89c2.79,0,5.05-2.26,5.05-5.05v-86.89c0-2.79-2.26-5.05-5.05-5.05h0Z"/>
  <text class="cls-2" transform="translate(911.82 384.14)"><tspan x="0" y="0">?</tspan></text>
  <path class="cls-1" d="m971.95-70c2.24,0,4.05,1.82,4.05,4.05V20.95c0,2.24-1.82,4.05-4.05,4.05h-86.89c-2.24,0-4.05-1.82-4.05-4.05v-86.89c0-2.24,1.82-4.05,4.05-4.05h86.89m0-1h-86.89c-2.79,0-5.05,2.26-5.05,5.05V20.95c0,2.79,2.26,5.05,5.05,5.05h86.89c2.79,0,5.05-2.26,5.05-5.05v-86.89c0-2.79-2.26-5.05-5.05-5.05h0Z"/>
  <text class="cls-2" transform="translate(911.82 -3.86)"><tspan x="0" y="0">?</tspan></text>
</svg>