<?xml version="1.0" encoding="UTF-8"?>
<svg id="Layer_1" data-name="Layer 1" xmlns="http://www.w3.org/2000/svg" viewBox="0 0 1020 370">
  <defs>
    <style>
      .cls-1 {
        stroke-linecap: round;
        stroke-linejoin: round;
      }

      .cls-1, .cls-2 {
        fill: none;
        stroke: #116690;
      }

      .cls-3 {
        fill: #e8a44b;
      }

      .cls-4 {
        fill: #85ea2d;
      }

      .cls-5 {
        fill: #25afe5;
      }

      .cls-2 {
        stroke-miterlimit: 10;
      }
    </style>
  </defs>
  <path class="cls-1" d="m301.59,0s153.72,72.5,351.81,0"/>
  <path class="cls-1" d="m349.99,0s341.17,154.5,455.84,0"/>
  <path class="cls-1" d="m890.78,0s4.28,56.07,0,76.28"/>
  <path class="cls-2" d="m883.5,371.5v-112.94c0-3.63-2.94-6.56-6.56-6.56h-68.87c-3.63,0-6.56,2.94-6.56,6.56v112.94"/>
  <polyline class="cls-2" points="876 252 876 246.5 809 246.5 809 252"/>
  <line class="cls-2" x1="822.5" y1="246.5" x2="822.5" y2="231.5"/>
  <line class="cls-2" x1="842.5" y1="246" x2="842.5" y2="231"/>
  <line class="cls-2" x1="862.5" y1="246" x2="862.5" y2="231"/>
  <circle class="cls-5" cx="822.5" cy="231.5" r="4.5"/>
  <circle class="cls-4" cx="842.5" cy="231.5" r="4.5"/>
  <circle class="cls-3" cx="862.5" cy="231.5" r="4.5"/>
  <path class="cls-1" d="m950.05,0s-39.86,129.18,69.95,153.34"/>
  <path class="cls-1" d="m969.61,0s8.87,313.92,50.39,209.21"/>
</svg>