<?xml version="1.0" encoding="UTF-8"?>
<svg id="Layer_1" data-name="Layer 1" xmlns="http://www.w3.org/2000/svg" xmlns:xlink="http://www.w3.org/1999/xlink" viewBox="0 0 1720 270">
  <defs>
    <style>
      .cls-1, .cls-2 {
        fill: none;
      }

      .cls-3 {
        fill: url(#New_Pattern_2);
      }

      .cls-2 {
        stroke: #0d7283;
        stroke-miterlimit: 10;
      }
    </style>
    <pattern id="New_Pattern_2" data-name="New Pattern 2" x="0" y="0" width="18.52" height="18.42" patternUnits="userSpaceOnUse" viewBox="0 0 18.52 18.42">
      <g>
        <rect class="cls-1" y="0" width="18.52" height="18.42"/>
        <ellipse class="cls-2" cx="4.67" cy="13.76" rx="3.5" ry="4.74" transform="translate(-8.36 7.33) rotate(-45)"/>
        <ellipse class="cls-2" cx="4.67" cy="4.76" rx="4.74" ry="3.5" transform="translate(-2 4.69) rotate(-45)"/>
        <ellipse class="cls-2" cx="13.85" cy="4.67" rx="3.5" ry="4.74" transform="translate(.76 11.16) rotate(-45)"/>
        <ellipse class="cls-2" cx="13.85" cy="13.67" rx="4.74" ry="3.5" transform="translate(-5.61 13.8) rotate(-45)"/>
      </g>
    </pattern>
  </defs>
  <polyline class="cls-2" points="1474.52 270.13 1474.52 146.73 1358.92 130 1243.33 146.73 1243.33 270.13"/>
  <path class="cls-2" d="m1271.2,270.13v-103.7c0-5.75,4.66-10.41,10.41-10.41h0c5.75,0,10.41,4.66,10.41,10.41v103.7"/>
  <path class="cls-2" d="m1302.13,270.13v-103.7c0-5.75,4.66-10.41,10.41-10.41h0c5.75,0,10.41,4.66,10.41,10.41v103.7"/>
  <path class="cls-2" d="m1343.46,156.02h0c5.74,0,10.41,4.66,10.41,10.41v62.07h-20.81v-62.07c0-5.74,4.66-10.41,10.41-10.41Z"/>
  <path class="cls-2" d="m1374.39,156.02h0c5.74,0,10.41,4.66,10.41,10.41v62.07h-20.81v-62.07c0-5.74,4.66-10.41,10.41-10.41Z"/>
  <path class="cls-2" d="m1394.9,270.13v-103.7c0-5.75,4.66-10.41,10.41-10.41h0c5.75,0,10.41,4.66,10.41,10.41v103.7"/>
  <path class="cls-2" d="m1425.83,270.13v-103.7c0-5.75,4.66-10.41,10.41-10.41h0c5.75,0,10.41,4.66,10.41,10.41v103.7"/>
  <path class="cls-2" d="m1332.91,270.5v-25.81c0-3.2,3.08-5.79,6.88-5.79h0c3.8,0,6.88,2.59,6.88,5.79v25.81"/>
  <path class="cls-2" d="m1351.86,270.5v-25.81c0-3.2,3.08-5.79,6.88-5.79h0c3.8,0,6.88,2.59,6.88,5.79v25.81"/>
  <path class="cls-2" d="m1370.82,270.5v-25.81c0-3.2,3.08-5.79,6.88-5.79h0c3.8,0,6.88,2.59,6.88,5.79v25.81"/>
  <rect class="cls-3" x="903.93" y="147.42" width="277.77" height="122.08"/>
  <path class="cls-2" d="m914,113.59h0c5.52,0,10,4.48,10,10v16h-20v-16c0-5.52,4.48-10,10-10Z"/>
  <path class="cls-2" d="m956.96,113.59h0c5.52,0,10,4.48,10,10v16h-20v-16c0-5.52,4.48-10,10-10Z"/>
  <path class="cls-2" d="m999.92,113.59h0c5.52,0,10,4.48,10,10v16h-20v-16c0-5.52,4.48-10,10-10Z"/>
  <path class="cls-2" d="m1042.88,113.59h0c5.52,0,10,4.48,10,10v16h-20v-16c0-5.52,4.48-10,10-10Z"/>
  <path class="cls-2" d="m1085.84,113.59h0c5.52,0,10,4.48,10,10v16h-20v-16c0-5.52,4.48-10,10-10Z"/>
  <path class="cls-2" d="m1128.8,113.59h0c5.52,0,10,4.48,10,10v16h-20v-16c0-5.52,4.48-10,10-10Z"/>
  <path class="cls-2" d="m1171.76,113.59h0c5.52,0,10,4.48,10,10v16h-20v-16c0-5.52,4.48-10,10-10Z"/>
  <polygon class="cls-2" points="1076.57 100 1076.57 93 1048.35 93 1048.35 100 1036.68 100 1036.68 93 1008.46 93 1008.46 100 895.51 100 895.51 271 1190.25 271 1190.25 100 1076.57 100"/>
  <rect class="cls-2" x="1535.83" y="35.43" width="7.73" height="10.11"/>
  <rect class="cls-2" x="1535.83" y="66.73" width="7.73" height="8.19"/>
  <rect class="cls-2" x="1535.83" y="96.11" width="7.73" height="8.19"/>
  <rect class="cls-2" x="1535.83" y="125.49" width="7.73" height="8.18"/>
  <rect class="cls-2" x="1535.83" y="154.87" width="7.73" height="8.18"/>
  <rect class="cls-2" x="1535.83" y="184.24" width="7.73" height="8.19"/>
  <rect class="cls-2" x="1535.83" y="213.62" width="7.73" height="8.19"/>
  <rect class="cls-2" x="1535.83" y="243" width="7.73" height="8.19"/>
  <polyline class="cls-2" points="1535.83 274.79 1535.83 256.79 1543.56 256.79 1543.56 274.79"/>
  <rect class="cls-2" x="1550.06" y="35.43" width="101.71" height="10.11"/>
  <rect class="cls-2" x="1550.06" y="66.73" width="101.71" height="8.19"/>
  <rect class="cls-2" x="1550.06" y="96.11" width="101.71" height="8.19"/>
  <rect class="cls-2" x="1550.06" y="125.49" width="101.71" height="8.18"/>
  <rect class="cls-2" x="1550.06" y="154.87" width="101.71" height="8.18"/>
  <rect class="cls-2" x="1550.06" y="184.24" width="101.71" height="8.19"/>
  <rect class="cls-2" x="1550.06" y="213.62" width="101.71" height="8.19"/>
  <rect class="cls-2" x="1550.06" y="243" width="101.71" height="8.19"/>
  <rect class="cls-2" x="1658.27" y="35.43" width="7.81" height="10.11"/>
  <rect class="cls-2" x="1658.27" y="66.73" width="7.81" height="8.19"/>
  <rect class="cls-2" x="1658.27" y="96.11" width="7.81" height="8.19"/>
  <rect class="cls-2" x="1658.27" y="125.49" width="7.81" height="8.18"/>
  <rect class="cls-2" x="1658.27" y="154.87" width="7.81" height="8.18"/>
  <rect class="cls-2" x="1658.27" y="184.24" width="7.81" height="8.19"/>
  <rect class="cls-2" x="1658.27" y="213.62" width="7.81" height="8.19"/>
  <rect class="cls-2" x="1658.27" y="243" width="7.81" height="8.19"/>
  <polyline class="cls-2" points="1658.27 274.79 1658.27 256.79 1666.08 256.79 1666.08 274.79"/>
  <path class="cls-2" d="m1550.06,274.79v-18h101.71v18m6.5,0v-18h16.04v-5.6h-16.04v-8.19h16.04v-21.19h-16.04v-8.19h16.04v-21.19h-16.04v-8.19h16.04v-21.19h-16.04v-8.18h16.04v-21.2h-16.04v-8.18h16.04v-21.19h-16.04v-8.19h16.04v-21.19h-16.04v-8.19h16.04v-21.19h-16.04v-10.11h-6.5v10.11h-101.71v-10.11h-6.5v10.11h-15.96v21.19h15.96v8.19h-15.96v21.19h15.96v8.19h-15.96v21.19h15.96v8.18h-15.96v21.2h15.96v8.18h-15.96v21.19h15.96v8.19h-15.96v21.19h15.96v8.19h-15.96v21.19h15.96v8.19h-15.96v5.6h15.96v18m108.21-23.6h-101.71v-8.19h101.71v8.19Zm0-29.38h-101.71v-8.19h101.71v8.19Zm0-29.38h-101.71v-8.19h101.71v8.19Zm0-29.38h-101.71v-8.18h101.71v8.18Zm0-29.38h-101.71v-8.18h101.71v8.18Zm0-29.37h-101.71v-8.19h101.71v8.19Zm0-29.38h-101.71v-8.19h101.71v8.19Z"/>
  <g>
    <line class="cls-2" x1="1550.1" y1="154.95" x2="1550.1" y2="162.95"/>
    <line class="cls-2" x1="1559.35" y1="154.95" x2="1559.35" y2="162.95"/>
    <line class="cls-2" x1="1568.59" y1="154.95" x2="1568.59" y2="162.95"/>
    <line class="cls-2" x1="1577.84" y1="154.95" x2="1577.84" y2="162.95"/>
    <line class="cls-2" x1="1587.09" y1="154.95" x2="1587.09" y2="162.95"/>
    <line class="cls-2" x1="1596.33" y1="154.95" x2="1596.33" y2="162.95"/>
    <line class="cls-2" x1="1605.58" y1="154.95" x2="1605.58" y2="162.95"/>
    <line class="cls-2" x1="1614.83" y1="154.95" x2="1614.83" y2="162.95"/>
    <line class="cls-2" x1="1624.07" y1="154.95" x2="1624.07" y2="162.95"/>
    <line class="cls-2" x1="1633.32" y1="154.95" x2="1633.32" y2="162.95"/>
    <line class="cls-2" x1="1642.56" y1="154.95" x2="1642.56" y2="162.95"/>
    <line class="cls-2" x1="1651.81" y1="154.95" x2="1651.81" y2="162.95"/>
  </g>
  <g>
    <line class="cls-2" x1="1550.1" y1="66.82" x2="1550.1" y2="74.82"/>
    <line class="cls-2" x1="1559.35" y1="66.82" x2="1559.35" y2="74.82"/>
    <line class="cls-2" x1="1568.59" y1="66.82" x2="1568.59" y2="74.82"/>
    <line class="cls-2" x1="1577.84" y1="66.82" x2="1577.84" y2="74.82"/>
    <line class="cls-2" x1="1587.09" y1="66.82" x2="1587.09" y2="74.82"/>
    <line class="cls-2" x1="1596.33" y1="66.82" x2="1596.33" y2="74.82"/>
    <line class="cls-2" x1="1605.58" y1="66.82" x2="1605.58" y2="74.82"/>
    <line class="cls-2" x1="1614.83" y1="66.82" x2="1614.83" y2="74.82"/>
    <line class="cls-2" x1="1624.07" y1="66.82" x2="1624.07" y2="74.82"/>
    <line class="cls-2" x1="1633.32" y1="66.82" x2="1633.32" y2="74.82"/>
    <line class="cls-2" x1="1642.56" y1="66.82" x2="1642.56" y2="74.82"/>
    <line class="cls-2" x1="1651.81" y1="66.82" x2="1651.81" y2="74.82"/>
  </g>
  <g>
    <line class="cls-2" x1="1550.1" y1="96.2" x2="1550.1" y2="104.2"/>
    <line class="cls-2" x1="1559.35" y1="96.2" x2="1559.35" y2="104.2"/>
    <line class="cls-2" x1="1568.59" y1="96.2" x2="1568.59" y2="104.2"/>
    <line class="cls-2" x1="1577.84" y1="96.2" x2="1577.84" y2="104.2"/>
    <line class="cls-2" x1="1587.09" y1="96.2" x2="1587.09" y2="104.2"/>
    <line class="cls-2" x1="1596.33" y1="96.2" x2="1596.33" y2="104.2"/>
    <line class="cls-2" x1="1605.58" y1="96.2" x2="1605.58" y2="104.2"/>
    <line class="cls-2" x1="1614.83" y1="96.2" x2="1614.83" y2="104.2"/>
    <line class="cls-2" x1="1624.07" y1="96.2" x2="1624.07" y2="104.2"/>
    <line class="cls-2" x1="1633.32" y1="96.2" x2="1633.32" y2="104.2"/>
    <line class="cls-2" x1="1642.56" y1="96.2" x2="1642.56" y2="104.2"/>
    <line class="cls-2" x1="1651.81" y1="96.2" x2="1651.81" y2="104.2"/>
  </g>
  <g>
    <line class="cls-2" x1="1550.1" y1="125.58" x2="1550.1" y2="133.58"/>
    <line class="cls-2" x1="1559.35" y1="125.58" x2="1559.35" y2="133.58"/>
    <line class="cls-2" x1="1568.59" y1="125.58" x2="1568.59" y2="133.58"/>
    <line class="cls-2" x1="1577.84" y1="125.58" x2="1577.84" y2="133.58"/>
    <line class="cls-2" x1="1587.09" y1="125.58" x2="1587.09" y2="133.58"/>
    <line class="cls-2" x1="1596.33" y1="125.58" x2="1596.33" y2="133.58"/>
    <line class="cls-2" x1="1605.58" y1="125.58" x2="1605.58" y2="133.58"/>
    <line class="cls-2" x1="1614.83" y1="125.58" x2="1614.83" y2="133.58"/>
    <line class="cls-2" x1="1624.07" y1="125.58" x2="1624.07" y2="133.58"/>
    <line class="cls-2" x1="1633.32" y1="125.58" x2="1633.32" y2="133.58"/>
    <line class="cls-2" x1="1642.56" y1="125.58" x2="1642.56" y2="133.58"/>
    <line class="cls-2" x1="1651.81" y1="125.58" x2="1651.81" y2="133.58"/>
  </g>
  <g>
    <line class="cls-2" x1="1550.1" y1="184.34" x2="1550.1" y2="192.34"/>
    <line class="cls-2" x1="1559.35" y1="184.34" x2="1559.35" y2="192.34"/>
    <line class="cls-2" x1="1568.59" y1="184.34" x2="1568.59" y2="192.34"/>
    <line class="cls-2" x1="1577.84" y1="184.34" x2="1577.84" y2="192.34"/>
    <line class="cls-2" x1="1587.09" y1="184.34" x2="1587.09" y2="192.34"/>
    <line class="cls-2" x1="1596.33" y1="184.34" x2="1596.33" y2="192.34"/>
    <line class="cls-2" x1="1605.58" y1="184.34" x2="1605.58" y2="192.34"/>
    <line class="cls-2" x1="1614.83" y1="184.34" x2="1614.83" y2="192.34"/>
    <line class="cls-2" x1="1624.07" y1="184.34" x2="1624.07" y2="192.34"/>
    <line class="cls-2" x1="1633.32" y1="184.34" x2="1633.32" y2="192.34"/>
    <line class="cls-2" x1="1642.56" y1="184.34" x2="1642.56" y2="192.34"/>
    <line class="cls-2" x1="1651.81" y1="184.34" x2="1651.81" y2="192.34"/>
  </g>
  <g>
    <line class="cls-2" x1="1550.1" y1="213.72" x2="1550.1" y2="221.72"/>
    <line class="cls-2" x1="1559.35" y1="213.72" x2="1559.35" y2="221.72"/>
    <line class="cls-2" x1="1568.59" y1="213.72" x2="1568.59" y2="221.72"/>
    <line class="cls-2" x1="1577.84" y1="213.72" x2="1577.84" y2="221.72"/>
    <line class="cls-2" x1="1587.09" y1="213.72" x2="1587.09" y2="221.72"/>
    <line class="cls-2" x1="1596.33" y1="213.72" x2="1596.33" y2="221.72"/>
    <line class="cls-2" x1="1605.58" y1="213.72" x2="1605.58" y2="221.72"/>
    <line class="cls-2" x1="1614.83" y1="213.72" x2="1614.83" y2="221.72"/>
    <line class="cls-2" x1="1624.07" y1="213.72" x2="1624.07" y2="221.72"/>
    <line class="cls-2" x1="1633.32" y1="213.72" x2="1633.32" y2="221.72"/>
    <line class="cls-2" x1="1642.56" y1="213.72" x2="1642.56" y2="221.72"/>
    <line class="cls-2" x1="1651.81" y1="213.72" x2="1651.81" y2="221.72"/>
  </g>
  <g>
    <line class="cls-2" x1="1550.1" y1="243.1" x2="1550.1" y2="251.1"/>
    <line class="cls-2" x1="1559.35" y1="243.1" x2="1559.35" y2="251.1"/>
    <line class="cls-2" x1="1568.59" y1="243.1" x2="1568.59" y2="251.1"/>
    <line class="cls-2" x1="1577.84" y1="243.1" x2="1577.84" y2="251.1"/>
    <line class="cls-2" x1="1587.09" y1="243.1" x2="1587.09" y2="251.1"/>
    <line class="cls-2" x1="1596.33" y1="243.1" x2="1596.33" y2="251.1"/>
    <line class="cls-2" x1="1605.58" y1="243.1" x2="1605.58" y2="251.1"/>
    <line class="cls-2" x1="1614.83" y1="243.1" x2="1614.83" y2="251.1"/>
    <line class="cls-2" x1="1624.07" y1="243.1" x2="1624.07" y2="251.1"/>
    <line class="cls-2" x1="1633.32" y1="243.1" x2="1633.32" y2="251.1"/>
    <line class="cls-2" x1="1642.56" y1="243.1" x2="1642.56" y2="251.1"/>
    <line class="cls-2" x1="1651.81" y1="243.1" x2="1651.81" y2="251.1"/>
  </g>
  <line class="cls-2" x1="1543.56" y1="251.19" x2="1550.06" y2="251.19"/>
  <line class="cls-2" x1="1543.56" y1="256.79" x2="1550.06" y2="256.79"/>
  <line class="cls-2" x1="1651.77" y1="251.19" x2="1658.27" y2="251.19"/>
  <line class="cls-2" x1="1651.77" y1="256.79" x2="1658.27" y2="256.79"/>
  <line class="cls-2" x1="1312.54" y1="146.2" x2="1405.31" y2="146.2"/>
</svg>